<svg aria-hidden="true" style="position: absolute; width: 0; height: 0; overflow: hidden;" version="1.1" xmlns="http://www.w3.org/2000/svg" xmlns:xlink="http://www.w3.org/1999/xlink">
  <defs>
   <symbol id="burger" viewBox="0 0 43 32" fill="currentColor">
     <path d="M0 0h42.667v5.333h-42.667v-5.333zM0 13.333h42.667v5.333h-42.667v-5.333zM0 26.667h42.667v5.333h-42.667v-5.333z"></path>
   </symbol> 

   <symbol id="close" viewBox="0 0 32 32" fill="currentColor">
     <path d="M32 3.223l-3.223-3.223-12.777 12.777-12.777-12.777-3.223 3.223 12.777 12.777-12.777 12.777 3.223 3.223 12.777-12.777 12.777 12.777 3.223-3.223-12.777-12.777 12.777-12.777z"></path>
   </symbol>

  <symbol id="searchWithStar" viewBox="0 0 32 32">
    <path fill-rule="evenodd" clip-rule="evenodd" d="M21.7237 21.7272C21.203 22.2479 21.203 23.0921 21.7237 23.6128L27.3333 29.2225C27.9616 28.5937 28.5918 27.9668 29.2154 27.3334L23.6093 21.7272C23.0886 21.2065 22.2444 21.2065 21.7237 21.7272Z" fill="black"/>
    <path fill-rule="evenodd" clip-rule="evenodd" d="M14.6398 5.27147C14.4933 4.54981 13.7896 4.08355 13.0679 4.23004C7.89425 5.28023 3.99981 9.85216 3.99981 15.3367C3.99981 21.5959 9.07391 26.67 15.3331 26.67C20.2698 26.67 24.466 23.5144 26.0212 19.1144C26.2666 18.4201 25.9027 17.6583 25.2084 17.4129C24.5142 17.1675 23.7524 17.5314 23.507 18.2257C22.3166 21.5936 19.1046 24.0034 15.3331 24.0034C10.5467 24.0034 6.66648 20.1231 6.66648 15.3367C6.66648 11.1454 9.64306 7.64629 13.5984 6.8434C14.32 6.69691 14.7863 5.99314 14.6398 5.27147Z" fill="black"/>
    <path fill-rule="evenodd" clip-rule="evenodd" d="M20 3C19.3739 3 18.8181 3.40063 18.6201 3.99458L17.2137 8.21372L12.9946 9.6201C12.4006 9.81808 12 10.3739 12 11C12 11.6261 12.4006 12.1819 12.9946 12.3799L17.2137 13.7863L18.6201 18.0054C18.8181 18.5994 19.3739 19 20 19C20.6261 19 21.1819 18.5994 21.3799 18.0054L22.7863 13.7863L27.0054 12.3799C27.5994 12.1819 28 11.6261 28 11C28 10.3739 27.5994 9.81808 27.0054 9.6201L22.7863 8.21372L21.3799 3.99458C21.1819 3.40063 20.6261 3 20 3ZM20 9.05422L20.2565 9.8236C20.4012 10.2579 20.7421 10.5988 21.1764 10.7435L21.9458 11L21.1764 11.2565C20.7421 11.4012 20.4012 11.7421 20.2565 12.1764L20 12.9458L19.7435 12.1764C19.5988 11.7421 19.2579 11.4012 18.8236 11.2565L18.0542 11L18.8236 10.7435C19.2579 10.5988 19.5988 10.2579 19.7435 9.8236L20 9.05422Z" fill="url(#paint0_radial_13269_1466)"/>
    <defs>
    <radialGradient id="paint0_radial_13269_1466" cx="0" cy="0" r="1" gradientUnits="userSpaceOnUse" gradientTransform="translate(13.8 15.6) rotate(-37.4506) scale(15.7875)">
    <stop stop-color="#F22920"/>
    <stop offset="0.6" stop-color="#FF9933"/>
    <stop offset="1" stop-color="#FFE33F"/>
    </radialGradient> 
    </defs>
  </symbol>

  <symbol id="logo-text" viewBox="0 0 151 32" fill="currentColor">
    <path d="M26.146 20.55v11.45h-3.093v-8.155h-19.764v8.155h-3.289v-11.45h2.182c1.216 0 2.051-0.239 2.507-0.718 0.478-0.5 0.781-1.577 0.912-3.229 0.152-1.675 0.228-4.697 0.228-9.068v-7.535h17.029v20.55h3.289zM19.569 20.55v-17.256h-10.419v4.241c0 3.762-0.054 6.589-0.163 8.481s-0.369 3.403-0.781 4.534h11.364z"></path>
    <path d="M35.705 20.844c1.368 0 2.41-0.228 3.126-0.685 0.738-0.478 1.226-1.196 1.465-2.153h3.321c-0.174 1.109-0.608 2.142-1.302 3.099-0.673 0.935-1.585 1.685-2.735 2.251-1.129 0.544-2.42 0.815-3.875 0.815-1.715 0-3.202-0.392-4.461-1.174-1.237-0.783-2.182-1.848-2.833-3.197-0.651-1.37-0.977-2.914-0.977-4.632s0.326-3.251 0.977-4.599c0.651-1.37 1.596-2.436 2.833-3.197 1.259-0.783 2.746-1.174 4.461-1.174 2.475 0 4.45 0.87 5.926 2.61s2.214 4.317 2.214 7.731h-13.057c0.174 1.479 0.662 2.566 1.465 3.262 0.825 0.696 1.975 1.044 3.451 1.044zM35.705 9.492c-1.476 0-2.627 0.359-3.451 1.076s-1.313 1.827-1.465 3.327h9.768c-0.152-1.653-0.651-2.794-1.498-3.425-0.825-0.652-1.943-0.979-3.354-0.979z"></path>
    <path d="M54.583 6.198c1.541 0 2.93 0.348 4.168 1.044s2.214 1.707 2.93 3.034c0.716 1.327 1.074 2.925 1.074 4.795s-0.358 3.479-1.074 4.828c-0.716 1.327-1.693 2.338-2.93 3.034s-2.627 1.044-4.168 1.044c-1.281 0-2.399-0.25-3.354-0.75-0.955-0.522-1.726-1.272-2.312-2.251v9.394h-3.289v-23.845h3.289v2.577c1.194-1.935 3.082-2.903 5.666-2.903zM54.387 20.681c1.519 0 2.746-0.511 3.679-1.533s1.4-2.381 1.4-4.078c0-1.696-0.467-3.045-1.4-4.045-0.933-1.022-2.16-1.533-3.679-1.533-3.647 0-5.47 1.859-5.47 5.578 0 3.74 1.823 5.611 5.47 5.611z"></path>
    <path d="M87.775 6.524l-7.489 8.612 7.489 8.71h-3.907l-6.024-7.046h-1.074v7.046h-3.321v-7.046h-1.042l-6.024 7.046h-3.94l7.489-8.71-7.489-8.612h3.94l6.121 7.013h0.944v-13.537h3.321v13.537h0.977l6.121-7.013h3.907z"></path>
    <path d="M95.414 24.171c-2.605 0-4.634-0.805-6.089-2.414-1.454-1.631-2.182-3.827-2.182-6.589 0-2.74 0.716-4.915 2.149-6.524 1.454-1.631 3.495-2.446 6.121-2.446 2.301 0 4.135 0.587 5.503 1.761 1.368 1.153 2.236 2.773 2.605 4.86h-3.419c-0.326-1.087-0.89-1.914-1.693-2.479-0.782-0.565-1.78-0.848-2.996-0.848-1.563 0-2.789 0.511-3.679 1.533-0.868 1-1.302 2.381-1.302 4.143s0.434 3.153 1.302 4.175c0.89 1 2.117 1.501 3.679 1.501 1.194 0 2.192-0.283 2.996-0.848s1.367-1.37 1.693-2.414h3.419c-0.391 2.088-1.27 3.708-2.638 4.86-1.346 1.153-3.169 1.729-5.47 1.729z"></path>
    <path d="M118.629 6.524v3.229h-6.056v14.092h-3.289v-14.092h-6.089v-3.229h15.434z"></path>
    <path d="M127.231 6.524c2.214 0 3.983 0.565 5.308 1.696 1.346 1.109 2.019 2.881 2.019 5.317v10.308h-3.289v-4.404c-0.391 1.761-1.096 2.99-2.117 3.686s-2.279 1.044-3.777 1.044c-1.107 0-2.149-0.207-3.126-0.62s-1.769-1.033-2.377-1.859c-0.608-0.848-0.912-1.892-0.912-3.131 0-1.805 0.619-3.153 1.856-4.045 1.237-0.913 2.757-1.37 4.558-1.37h5.894c-0.065-1.218-0.434-2.077-1.107-2.577-0.651-0.5-1.628-0.75-2.93-0.75-2.778 0-4.168 0.935-4.168 2.805h-3.289c0-2.044 0.684-3.566 2.051-4.567 1.389-1.022 3.191-1.533 5.405-1.533zM125.374 20.844c1.758 0 3.18-0.37 4.265-1.109s1.628-1.979 1.628-3.719h-5.894c-1.020 0-1.802 0.217-2.344 0.652-0.521 0.413-0.782 1.022-0.782 1.827 0 1.566 1.042 2.349 3.126 2.349z"></path>
    <path d="M150.986 6.524v3.229h-6.056v14.092h-3.289v-14.092h-6.089v-3.229h15.434z"></path>
  </symbol>

  <symbol id="arrow-down" viewBox="0 0 32 32" fill="currentColor">
    <path d="M15.993 21.3l-7.794-10.5h15.588l-7.794 10.5z"></path>
  </symbol>
 </defs>
</svg>